Coordinates
version=1
nRows=8
nColumns=40
inDegrees=yes

Units are S.I. units (second, meters, Newtons, ...)
If the header above contains a line with 'inDegrees', this indicates whether rotational values are in degrees (yes) or radians (no).

endheader
time	pelvis_tilt	pelvis_list	pelvis_rotation	pelvis_tx	pelvis_ty	pelvis_tz	hip_flexion_r	hip_adduction_r	hip_rotation_r	knee_angle_r	knee_angle_r_beta	ankle_angle_r	subtalar_angle_r	mtp_angle_r	hip_flexion_l	hip_adduction_l	hip_rotation_l	knee_angle_l	knee_angle_l_beta	ankle_angle_l	subtalar_angle_l	mtp_angle_l	lumbar_extension	lumbar_bending	lumbar_rotation	arm_flex_r	arm_add_r	arm_rot_r	elbow_flex_r	pro_sup_r	wrist_flex_r	wrist_dev_r	arm_flex_l	arm_add_l	arm_rot_l	elbow_flex_l	pro_sup_l	wrist_flex_l	wrist_dev_l
      0.00000000	      1.91705015	      7.15397270	      0.23907797	      0.07261571	      1.32145058	      0.00439874	     45.78772278	    -14.30041382	      3.41468541	     61.25729044	      1.06914141	      7.18428701	    -17.32260933	      0.00000000	     41.03174305	     -4.60477756	     -4.64386189	     92.00407512	      1.60577404	      3.51188979	     -5.54309042	      0.00000000	    -57.81158439	      3.00294700	     -5.94908323	     47.07505731	      5.86140050	    -19.34899451	     47.72812331	     49.32520952	      0.00000000	      0.00000000	     51.76583116	     19.41763128	    -12.81127154	     32.89573416	      6.62063302	      0.00000000	      0.00000000
      0.01700000	      2.12834212	      7.84725057	      0.90555008	      0.07157700	      1.32173369	      0.00418882	     41.77105657	    -15.34100954	      1.56702878	     56.55618432	      0.98709163	      4.94211822	    -17.16941688	      0.00000000	     43.79973498	     -3.85193552	     -3.95344714	     96.66476233	      1.68711837	      5.07391079	     -5.39739783	      0.00000000	    -57.72033447	      2.87491597	     -6.74233838	     46.48852548	      5.59582381	    -19.53794289	     47.98187538	     49.13672535	      0.00000000	      0.00000000	     51.67153961	     19.57860651	    -12.44770091	     32.55860243	      6.84763210	      0.00000000	      0.00000000
      0.03300000	      2.25238176	      8.65203253	      1.44774044	      0.07065200	      1.32163025	      0.00421516	     37.84971172	    -16.33643192	     -0.34778528	     51.58082355	      0.90025520	      1.92994108	    -16.69004800	      0.00000000	     46.60881874	     -3.12875264	     -3.55394335	    101.17879213	      1.76590306	      6.50362541	     -5.30730249	      0.00000000	    -57.52387146	      2.53461584	     -7.57255765	     45.82336120	      5.37325120	    -19.74887619	     48.26250616	     48.94220782	      0.00000000	      0.00000000	     51.53765610	     19.74726670	    -12.12905209	     32.21293544	      7.07271149	      0.00000000	      0.00000000
      0.05000000	      2.34127655	      9.20315486	      2.34574530	      0.07001511	      1.32153624	      0.00390813	     33.98279273	    -17.16163873	     -2.69218159	     47.37134164	      0.82678588	     -0.58050491	    -16.46568898	      0.00000000	     49.50227223	     -2.35462102	     -2.89565936	    104.76711606	      1.82853112	      7.83011323	     -4.85463531	      0.00000000	    -57.42345290	      2.70525840	     -8.40119238	     45.37121613	      5.22295163	    -19.94642130	     48.39501172	     48.67130585	      0.00000000	      0.00000000	     51.47556965	     19.83888170	    -11.72870690	     31.90590497	      7.10529878	      0.00000000	      0.00000000
      0.06700000	      2.03197091	      9.84818031	      3.14117567	      0.06959339	      1.32090420	      0.00354965	     31.01107416	    -17.90790723	     -4.67031744	     44.54931916	      0.77753230	     -2.94340490	    -16.15552456	      0.00000000	     52.80897834	     -1.73541869	     -2.90463208	    107.21192213	      1.87120104	      9.60858012	     -4.25923841	      0.00000000	    -57.16107394	      2.78236840	     -9.31867984	     45.20762077	      5.29942986	    -20.27620019	     48.43516263	     48.47117767	      0.00000000	      0.00000000	     51.53859669	     19.79320596	    -11.27506966	     31.66348109	      7.17784125	      0.00000000	      0.00000000
      0.08300000	      1.58662858	     10.42986126	      3.85342862	      0.06947996	      1.32008076	      0.00326914	     28.53370837	    -18.49810327	     -6.51607914	     42.76719095	      0.74642829	     -5.00207026	    -15.92982017	      0.00000000	     56.19319159	     -1.25202799	     -3.21992084	    108.72439103	      1.89759860	     11.50340164	     -3.61427376	      0.00000000	    -56.89651135	      2.88485125	    -10.19631858	     45.20779126	      5.49008344	    -20.63665933	     48.41611813	     48.37197150	      0.00000000	      0.00000000	     51.65853981	     19.67255472	    -10.86539795	     31.48221874	      7.33251311	      0.00000000	      0.00000000
      0.10000000	      1.29501751	     10.85854759	      4.03364793	      0.06951275	      1.31937080	      0.00353718	     26.72370437	    -18.74018988	     -7.84311162	     42.25952655	      0.73756788	     -6.52841651	    -15.60065242	      0.00000000	     58.98260321	     -1.05543834	     -3.80216900	    109.17062067	      1.90538678	     13.27557177	     -3.34149036	      0.00000000	    -56.79576351	      2.76666365	    -10.71141709	     45.28781723	      5.63974929	    -20.85330353	     48.40114758	     48.35311705	      0.00000000	      0.00000000	     51.74466545	     19.57753273	    -10.62414377	     31.40065351	      7.50427117	      0.00000000	      0.00000000
      0.11700000	      1.28562888	     11.10834555	      3.65401830	      0.06970205	      1.31909848	      0.00455915	     25.45930967	    -18.66210350	     -8.66512800	     43.12325341	      0.75264276	     -7.31966777	    -15.28805147	      0.00000000	     61.01841137	     -0.96980386	     -4.40194454	    108.43918487	      1.89262081	     14.80428356	     -3.43823367	      0.00000000	    -56.97836831	      2.47291088	    -10.83597449	     45.43037398	      5.65022552	    -20.81120962	     48.36103269	     48.37618839	      0.00000000	      0.00000000	     51.75131846	     19.55059051	    -10.56448234	     31.47841070	      7.77862061	      0.00000000	      0.00000000
